<?xml version="1.0" encoding="UTF-8"?>
<!-- Generated by Pixelmator Pro 3.7 -->
<svg width="7437" height="6012" viewBox="0 0 7437 6012" xmlns="http://www.w3.org/2000/svg">
    <g id="Capa-1-copia">
        <g id="Agrupar">
            <path id="Trazado" fill="none" stroke="#ffffff" stroke-width="200" stroke-linecap="round" stroke-linejoin="round" d="M 182.910461 140.347168 L 1065.328247 140.347168 C 1453.967041 140.347168 1831.929199 452.510254 1905.443848 834.190918 L 2478.7771 3812.408936 C 2552.233887 4193.964844 2930.25415 4506.188965 3318.834229 4506.188965 L 6912.561035 4506.188965"/>
            <g id="g1">
                <path id="path1" fill="none" stroke="#ffffff" stroke-width="200" stroke-linecap="round" stroke-linejoin="round" d="M 2959.26709 3463.626221 L 6143.698242 3463.626221 C 6532.276855 3463.626221 6907.338867 3150.824707 6977.080566 2768.567871 L 7242.657227 1313.111816 C 7312.341309 930.85498 7051.470703 618.107422 6662.944336 618.107422 L 2405.779541 618.107422"/>
            </g>
            <g id="g2">
                <path id="path2" fill="none" stroke="#ffffff" stroke-width="200" stroke-linecap="round" stroke-linejoin="round" d="M 3880.151855 5374.508789 C 3880.151855 5649.882813 3656.937988 5873.154785 3381.500488 5873.154785 C 3106.23877 5873.154785 2882.9646 5649.882813 2882.9646 5374.508789 C 2882.9646 5099.128906 3106.23877 4875.854492 3381.500488 4875.854492 C 3656.937988 4875.854492 3880.151855 5099.128906 3880.151855 5374.508789 Z"/>
                <path id="path3" fill="none" stroke="#ffffff" stroke-width="200" stroke-linecap="round" stroke-linejoin="round" d="M 6573.244629 5374.508789 C 6573.244629 5649.882813 6350.024414 5873.154785 6074.650879 5873.154785 C 5799.210449 5873.154785 5576.056641 5649.882813 5576.056641 5374.508789 C 5576.056641 5099.128906 5799.210449 4875.854492 6074.650879 4875.854492 C 6350.024414 4875.854492 6573.244629 5099.128906 6573.244629 5374.508789 Z"/>
            </g>
        </g>
    </g>
</svg>
