<?xml version="1.0" encoding="UTF-8"?>
<!-- Generated by Pixelmator Pro 3.6.18 -->
<svg width="800" height="800" viewBox="0 0 800 800" xmlns="http://www.w3.org/2000/svg">
    <g id="Mail-sent">
        <path id="Trazado" fill="#035925" stroke="none" d="M 799.255066 496.513641 L 749.805054 216.667419 C 745.190125 190.507385 720.178833 172.977417 693.993835 177.604858 L 297.423828 247.672363 C 272.7901 252.028625 256.070099 274.5224 258.046326 298.951111 C 257.776642 300.979889 307.836334 583.341125 307.836334 583.341125 C 310.058838 596.01239 317.1026 607.047363 327.661346 614.432373 C 335.85257 620.15863 345.386353 623.136108 355.176636 623.136108 C 357.995087 623.136108 360.827576 622.892395 363.647583 622.392334 L 760.192566 552.323608 C 772.864136 550.089905 783.898804 543.058594 791.283875 532.499878 C 798.657532 521.964844 801.489136 509.183655 799.255066 496.513641 Z M 765.846375 451.061157 L 632.506348 348.49115 C 670.041321 308.073639 709.227539 263.677368 728.787537 241.339844 L 765.846375 451.061157 Z M 301.782593 272.28241 L 698.340088 202.213623 C 699.707581 201.982361 701.05011 201.859863 702.380066 201.859863 C 710.046326 201.859863 717.055054 205.746155 721.323853 211.857361 C 709.671326 225.26239 604.137573 346.317383 553.406311 393.852386 C 540.125061 406.266113 520.87384 409.391113 504.431335 401.749908 C 444.555084 374.086151 314.185089 308.676117 282.845093 292.914886 C 283.218842 288.979889 284.507599 285.164856 286.841339 281.827393 C 290.392578 276.749878 295.702576 273.368591 301.782593 272.28241 Z M 287.228851 323.083649 C 316.593842 337.813629 369.918854 364.467377 418.635071 388.31488 L 324.600067 534.591187 L 287.228851 323.083649 Z M 770.801636 518.16864 C 767.24884 523.246155 761.95166 526.627441 755.858826 527.702393 L 359.301636 597.782349 C 353.210083 598.832397 347.046326 597.489868 341.980072 593.937378 C 336.914124 590.3974 333.520081 585.087402 332.44635 578.996155 L 331.006348 570.849915 L 441.260101 399.344879 L 441.260101 399.344879 C 461.281342 409.061157 479.621307 417.833618 493.945068 424.454895 C 503.320068 428.788605 513.281372 430.899902 523.132568 430.899902 C 540.368835 430.899902 557.323853 424.442383 570.495056 412.088623 C 583.056335 400.323639 598.681335 384.394897 615.323853 366.817383 L 772.296326 487.566132 L 774.646301 500.858643 C 775.720093 506.94989 774.3526 513.102417 770.801636 518.16864 Z"/>
        <path id="path1" fill="#035925" stroke="none" d="M 237.59758 373.343628 C 236.401627 366.544891 229.895096 361.954895 223.120087 363.212372 L 10.327595 400.809875 C 3.527595 402.006165 -1.013655 408.488647 0.195095 415.287415 C 1.257595 421.354858 6.531345 425.614868 12.487595 425.614868 C 13.207595 425.614868 13.940094 425.55365 14.672595 425.419891 L 227.466339 387.821136 C 234.265091 386.624878 238.806335 380.143646 237.59758 373.343628 Z"/>
        <path id="path2" fill="#035925" stroke="none" d="M 250.366333 445.646149 C 249.17009 438.847412 242.676636 434.281097 235.88913 435.514893 L 108.215096 458.073608 C 101.416336 459.269897 96.875092 465.751129 98.083839 472.551147 C 99.145088 478.617371 104.418839 482.877411 110.376633 482.877411 C 111.096344 482.877411 111.828842 482.817352 112.561348 482.682373 L 240.233856 460.123627 C 247.033829 458.927399 251.575089 452.446136 250.366333 445.646149 Z"/>
        <path id="path3" fill="#035925" stroke="none" d="M 248.596329 507.462402 L 163.489136 522.50238 C 156.690094 523.698608 152.148849 530.179871 153.35759 536.979858 C 154.418839 543.046143 159.692596 547.306152 165.648834 547.306152 C 166.370087 547.306152 167.102585 547.244873 167.835098 547.111145 L 252.941345 532.072388 C 259.741333 530.876099 264.282593 524.393677 263.073853 517.594849 C 261.890076 510.794891 255.358841 506.193634 248.596329 507.462402 Z"/>
    </g>
</svg>
