<svg width="16" height="16" viewBox="0 0 16 16" fill="none" xmlns="http://www.w3.org/2000/svg">
<path d="M10.2683 14V9.35627H11.8231L12.0559 7.551H10.2683V6.39843C10.2683 5.87576 10.4133 5.51956 11.1629 5.51956L12.1189 5.51911V3.90451C11.9535 3.88255 11.3861 3.83337 10.7259 3.83337C9.34753 3.83337 8.404 4.67465 8.404 6.21968V7.551H6.84513V9.35627H8.404V14H2.66667C2.29848 14 2 13.7015 2 13.3333V2.66667C2 2.29848 2.29848 2 2.66667 2H13.3333C13.7015 2 14 2.29848 14 2.66667V13.3333C14 13.7015 13.7015 14 13.3333 14H10.2683Z" fill="#035925"/>
</svg>
