<svg width="45" height="45" viewBox="0 0 45 45" fill="none" xmlns="http://www.w3.org/2000/svg">
<path d="M36.9227 28.0931L39.1266 29.4154C39.5605 29.676 39.7013 30.239 39.441 30.6731C39.3635 30.8022 39.2555 30.9102 39.1266 30.9875L23.0464 40.6354C22.4658 40.984 21.7405 40.984 21.1599 40.6354L5.07996 30.9875C4.64584 30.727 4.50506 30.164 4.76554 29.7299C4.84294 29.6008 4.95093 29.4928 5.07996 29.4154L7.28379 28.0931L22.1032 36.9847L36.9227 28.0931ZM36.9227 19.4764L39.1266 20.7988C39.5605 21.0593 39.7013 21.6223 39.441 22.0564C39.3635 22.1855 39.2555 22.2935 39.1266 22.3709L22.1032 32.5847L5.07996 22.3709C4.64584 22.1103 4.50506 21.5473 4.76554 21.1132C4.84294 20.9841 4.95093 20.8761 5.07996 20.7988L7.28379 19.4764L22.1032 28.3681L36.9227 19.4764ZM23.0464 2.62575L39.1266 12.2738C39.5605 12.5342 39.7013 13.0973 39.441 13.5314C39.3635 13.6605 39.2555 13.7684 39.1266 13.8458L22.1032 24.0597L5.07996 13.8458C4.64584 13.5854 4.50506 13.0223 4.76554 12.5882C4.84294 12.4592 4.95093 12.3512 5.07996 12.2738L21.1599 2.62575C21.7405 2.27742 22.4658 2.27742 23.0464 2.62575ZM22.1032 6.33585L10.8966 13.0598L22.1032 19.7838L33.3098 13.0598L22.1032 6.33585Z" fill="#035925"/>
</svg>
