<svg width="176" height="115" viewBox="0 0 176 115" fill="none" xmlns="http://www.w3.org/2000/svg">
<g clip-path="url(#clip0_619_3304)">
<mask id="mask0_619_3304" style="mask-type:luminance" maskUnits="userSpaceOnUse" x="0" y="41" width="175" height="31">
<path d="M0.40625 41.7859H174.751V71.3691H0.40625V41.7859Z" fill="white"/>
</mask>
<g mask="url(#mask0_619_3304)">
<mask id="mask1_619_3304" style="mask-type:luminance" maskUnits="userSpaceOnUse" x="0" y="41" width="175" height="31">
<path d="M0.408203 71.3687H174.753V41.7854H0.408203V71.3687Z" fill="white"/>
</mask>
<g mask="url(#mask1_619_3304)">
<path d="M68.7812 45.0244C68.7812 44.3218 69.0604 43.6479 69.5572 43.1511C70.0541 42.6542 70.728 42.3751 71.4306 42.3751C72.1333 42.3751 72.8071 42.6542 73.3039 43.1511C73.8008 43.6479 74.0799 44.3218 74.0799 45.0244C74.0543 45.7099 73.764 46.3589 73.2699 46.8348C72.7759 47.3107 72.1166 47.5767 71.4306 47.5767C70.7446 47.5767 70.0853 47.3107 69.5912 46.8348C69.0972 46.3589 68.8068 45.7099 68.7812 45.0244Z" fill="#72767D"/>
<path d="M110.579 62.6909C110.579 61.2205 111.764 60.0323 113.223 60.0323C113.927 60.0323 114.603 60.3122 115.101 60.8105C115.6 61.3087 115.88 61.9844 115.88 62.689C115.88 63.3936 115.6 64.0694 115.101 64.5676C114.603 65.0658 113.927 65.3457 113.223 65.3457C111.765 65.3457 110.579 64.1557 110.579 62.689" fill="#72767D"/>
<path d="M25.2986 61.5421C23.0183 61.5421 21.4316 59.7304 21.4316 57.1402C21.4316 54.5517 23.0182 52.7419 25.3004 52.7419C27.5936 52.7419 29.1969 54.5517 29.1969 57.1402C29.1969 59.771 27.6287 61.5421 25.2986 61.5421ZM25.2986 48.8731C20.4723 48.8731 16.9688 52.3507 16.9688 57.1402C16.9688 61.9314 20.4741 65.4072 25.2986 65.4072C30.1452 65.4072 33.6616 61.9314 33.6616 57.142C33.6616 52.3507 30.1434 48.8731 25.2986 48.8731ZM63.647 57.5553C63.4791 57.2304 63.2668 56.9305 63.0161 56.6642L62.8685 56.511L63.0235 56.3634C63.2449 56.1291 63.4718 55.8524 63.6895 55.5314L67.9513 49.1996H62.7782L59.5772 54.1532C59.3964 54.4189 59.0311 54.5517 58.4832 54.5517H57.7544V45.1869C57.7544 43.3143 56.5866 43.0597 55.3265 43.0597H53.1679L53.1734 65.1637H57.7562V58.5331H58.1861C58.7083 58.5331 59.0624 58.5939 59.2266 58.8781L61.7542 63.649C62.4608 64.9442 63.1637 65.1637 64.4883 65.1637H67.9992L65.3832 60.8392L63.649 57.5553M85.8932 48.8362C83.5612 48.8362 82.0741 49.873 81.2402 50.7494L80.9636 51.0298L80.8639 50.6479C80.6204 49.7088 79.7939 49.1941 78.5522 49.1941H76.4988L76.5117 65.1582H81.0631V57.8006C81.0631 57.0811 81.1553 56.4575 81.3472 55.8875C81.8527 54.1625 83.2659 53.0906 85.0315 53.0906C86.4521 53.0906 87.0075 53.8414 87.0075 55.7786V62.7321C87.0075 64.3851 87.7731 65.1582 89.428 65.1582H91.5939L91.5866 55.0037C91.5866 50.9708 89.6181 48.8362 85.8932 48.8362ZM71.4824 49.1996H69.3257L69.3405 61.544V65.1637H71.6411L71.7223 65.1674L72.7961 65.1637H73.8625V65.1582H73.8698L73.879 51.6257C73.879 49.9929 73.0987 49.2015 71.4844 49.2015M43.174 61.5421C40.8937 61.5421 39.3052 59.7304 39.3052 57.1402C39.3052 54.5517 40.8937 52.7419 43.1759 52.7419C45.4636 52.7419 47.0724 54.5517 47.0724 57.1402C47.0724 59.771 45.5042 61.5421 43.1759 61.5421H43.174ZM43.174 48.8731C38.344 48.8731 34.8386 52.3507 34.8386 57.1402C34.8386 61.9314 38.344 65.4072 43.1759 65.4072C48.0151 65.4072 51.5388 61.9314 51.5388 57.142C51.5388 52.3507 48.0151 48.8731 43.1759 48.8731" fill="#72767D"/>
</g>
</g>
<mask id="mask2_619_3304" style="mask-type:luminance" maskUnits="userSpaceOnUse" x="0" y="41" width="175" height="31">
<path d="M0.40625 41.7859H174.751V71.3691H0.40625V41.7859Z" fill="white"/>
</mask>
<g mask="url(#mask2_619_3304)">
<mask id="mask3_619_3304" style="mask-type:luminance" maskUnits="userSpaceOnUse" x="0" y="42" width="175" height="30">
<path d="M0.411133 42.3691H174.719V71.3306H0.411133V42.3691Z" fill="white"/>
</mask>
<g mask="url(#mask3_619_3304)">
<mask id="mask4_619_3304" style="mask-type:luminance" maskUnits="userSpaceOnUse" x="0" y="41" width="175" height="31">
<path d="M0.410156 71.3691H174.755V41.7859H0.410156V71.3691Z" fill="white"/>
</mask>
<g mask="url(#mask4_619_3304)">
<path d="M140.727 61.5436C138.447 61.5436 136.856 59.7319 136.856 57.1416C136.856 54.5532 138.447 52.7433 140.727 52.7433C143.018 52.7433 144.625 54.5532 144.625 57.1416C144.625 59.7725 143.057 61.5436 140.727 61.5436ZM140.727 48.8746C135.897 48.8746 132.394 52.3522 132.394 57.1416C132.394 61.9329 135.897 65.4087 140.727 65.4087C145.568 65.4087 149.09 61.9329 149.09 57.1435C149.09 52.3522 145.566 48.8746 140.727 48.8746Z" fill="#72767D"/>
<path d="M101.182 60.8406C98.6935 60.8406 97.808 58.671 97.808 56.636C97.808 55.7394 98.0348 52.8189 100.944 52.8189C102.389 52.8189 104.313 53.2321 104.313 56.7855C104.313 60.1377 102.61 60.8406 101.182 60.8406ZM106.676 49.1586C105.813 49.1586 105.149 49.5036 104.815 50.1327L104.689 50.3762L104.479 50.1917C103.745 49.5571 102.428 48.8025 100.289 48.8025C96.0331 48.8025 93.168 51.9997 93.168 56.7541C93.168 61.5066 96.1328 64.8274 100.374 64.8274C101.823 64.8274 102.968 64.488 103.876 63.8017L104.226 63.5378V63.9806C104.226 66.1134 102.848 67.2904 100.348 67.2904C99.1325 67.2904 98.0275 66.9952 97.2858 66.7259C96.3228 66.4344 95.7545 66.6761 95.3652 67.6446L95.0037 68.5376L94.4925 69.8438L94.8081 70.0117C96.4095 70.8603 98.4924 71.3677 100.374 71.3677C104.249 71.3677 108.776 69.3844 108.776 63.8017L108.793 49.1586H106.676Z" fill="#72767D"/>
</g>
</g>
</g>
<mask id="mask5_619_3304" style="mask-type:luminance" maskUnits="userSpaceOnUse" x="0" y="41" width="175" height="31">
<path d="M0.40625 41.7859H174.751V71.3691H0.40625V41.7859Z" fill="white"/>
</mask>
<g mask="url(#mask5_619_3304)">
<mask id="mask6_619_3304" style="mask-type:luminance" maskUnits="userSpaceOnUse" x="0" y="41" width="175" height="31">
<path d="M0.408203 71.3687H174.753V41.7854H0.408203V71.3687Z" fill="white"/>
</mask>
<g mask="url(#mask6_619_3304)">
<path d="M8.35058 61.3611L4.64598 61.3574V56.9296C4.64598 55.9813 5.01312 55.4905 5.82304 55.3761H8.35058C10.1531 55.3761 11.319 56.5126 11.3209 58.352C11.319 60.2412 10.1826 61.3592 8.35058 61.3592V61.3611ZM4.64598 49.4134V48.2474C4.64598 47.2272 5.07771 46.7419 6.02416 46.6792H7.92077C9.54614 46.6792 10.5203 47.6515 10.5203 49.2805C10.5203 50.5203 9.85237 51.9686 7.97977 51.9686H4.64598V49.4134ZM13.081 53.8338L12.4112 53.4574L12.9961 52.9575C13.6769 52.3726 14.8152 51.0572 14.8152 48.7879C14.8152 45.3121 12.1216 43.0687 7.95027 43.0687H2.64792C2.05129 43.0905 1.48594 43.3409 1.06897 43.7682C0.651996 44.1955 0.415388 44.7668 0.408203 45.3638V65.0859H8.04429C12.6806 65.0859 15.6731 62.5621 15.6731 58.6527C15.6731 56.5477 14.7064 54.7489 13.081 53.8338Z" fill="#72767D"/>
<path d="M169.414 48.8912C168.475 48.8946 167.548 49.1091 166.702 49.5188C165.857 49.9285 165.114 50.523 164.529 51.2582L164.201 51.6752L163.942 51.2084C163.097 49.6716 161.647 48.8912 159.631 48.8912C157.515 48.8912 156.096 50.0719 155.437 50.773L155.005 51.2398L154.839 50.6254C154.6 49.7398 153.812 49.2546 152.62 49.2546H150.707L150.688 65.1578H155.033V58.1379C155.033 57.5217 155.111 56.9147 155.264 56.2782C155.679 54.5809 156.819 52.7563 158.736 52.9389C159.917 53.0533 160.496 53.9665 160.496 55.7303V65.1578H164.872V58.1379C164.872 57.3686 164.944 56.793 165.118 56.2173C165.468 54.5975 166.66 52.9371 168.509 52.9371C169.848 52.9371 170.342 53.6935 170.342 55.7303V62.8332C170.342 64.4383 171.058 65.1578 172.665 65.1578H174.709L174.713 55.0052C174.713 50.9483 172.927 48.8912 169.414 48.8912ZM129.87 59.636C129.857 59.6526 127.988 61.623 125.525 61.623C123.282 61.623 121.017 60.2466 121.017 57.1749C121.017 54.5219 122.773 52.6677 125.289 52.6677C126.105 52.6677 127.035 52.9592 127.18 53.4518L127.201 53.5348C127.294 53.874 127.496 54.1729 127.776 54.3854C128.056 54.5979 128.399 54.712 128.75 54.7101L131.13 54.7137V52.6327C131.13 49.8874 127.638 48.8912 125.289 48.8912C120.264 48.8912 116.618 52.3891 116.618 57.2081C116.618 62.0233 120.223 65.5176 125.197 65.5176C129.511 65.5176 131.857 62.6819 131.879 62.6543L132.005 62.4993L130.119 59.3722L129.87 59.636Z" fill="#72767D"/>
</g>
</g>
</g>
<defs>
<clipPath id="clip0_619_3304">
<rect width="175.118" height="29.7" fill="white" transform="translate(0 42)"/>
</clipPath>
</defs>
</svg>
