<svg width="45" height="45" viewBox="0 0 45 45" fill="none" xmlns="http://www.w3.org/2000/svg">
<path d="M29.4372 29.56C32.4748 29.56 34.9372 32.0223 34.9372 35.06C34.9372 38.0976 32.4748 40.56 29.4372 40.56C26.3995 40.56 23.9372 38.0976 23.9372 35.06C23.9372 32.0223 26.3995 29.56 29.4372 29.56ZM11.1038 22.2266C15.1539 22.2266 18.4372 25.51 18.4372 29.56C18.4372 33.61 15.1539 36.8933 11.1038 36.8933C7.05375 36.8933 3.77051 33.61 3.77051 29.56C3.77051 25.51 7.05375 22.2266 11.1038 22.2266ZM26.6872 3.89331C32.2561 3.89331 36.7705 8.40777 36.7705 13.9766C36.7705 19.5456 32.2561 24.06 26.6872 24.06C21.1182 24.06 16.6038 19.5456 16.6038 13.9766C16.6038 8.40777 21.1182 3.89331 26.6872 3.89331Z" fill="#035925"/>
</svg>
