<svg width="14" height="14" viewBox="0 0 14 14" fill="none" xmlns="http://www.w3.org/2000/svg">
<path d="M12.2909 7.35349C12.2909 6.98891 12.2556 6.61258 12.1968 6.25977H7.10449V8.34137H10.0211C9.90348 9.01171 9.51539 9.59973 8.93912 9.97607L10.6797 11.3285C11.7028 10.3759 12.2909 8.98819 12.2909 7.35349Z" fill="#4285F4"/>
<path d="M7.10597 12.6229C8.56426 12.6229 9.78735 12.1407 10.6811 11.3174L8.9406 9.97675C8.45842 10.306 7.83512 10.4942 7.10597 10.4942C5.69471 10.4942 4.50691 9.54161 4.07177 8.27148L2.28418 9.64746C3.2015 11.4703 5.05965 12.6229 7.10597 12.6229Z" fill="#34A353"/>
<path d="M4.07087 8.26031C3.84742 7.58996 3.84742 6.86081 4.07087 6.19047L2.28328 4.80273C1.51885 6.33159 1.51885 8.13094 2.28328 9.64804L4.07087 8.26031Z" fill="#F6B704"/>
<path d="M7.10597 3.96678C7.8704 3.95502 8.62306 4.24903 9.17581 4.77825L10.7164 3.22587C9.74031 2.30856 8.44666 1.81462 7.10597 1.82638C5.05965 1.82638 3.2015 2.9789 2.28418 4.80177L4.07177 6.18951C4.50691 4.90762 5.69471 3.96678 7.10597 3.96678Z" fill="#E54335"/>
</svg>
