<?xml version="1.0" encoding="UTF-8"?>
<!-- Generated by Pixelmator Pro 3.7 -->
<svg width="176" height="115" viewBox="0 0 176 115" xmlns="http://www.w3.org/2000/svg">
    <g id="68ebc60ffedac3885d2e5b003">
        <path id="Path18" fill="#72767d" stroke="none" d="M 45.723 38.628998 L 46.714001 38.628998 C 50.185928 38.694679 53.499493 40.093651 55.967999 42.535995 C 55.068001 43.451996 54.154999 44.331001 53.276001 45.247002 C 50.506157 42.63343 46.502842 41.797676 42.918678 43.084747 C 39.334518 44.371819 36.777424 47.563416 36.303001 51.341999 C 35.901073 54.219662 36.720467 57.134319 38.563 59.381001 C 40.37624 61.554813 43.025402 62.858868 45.854 62.969997 C 48.509033 63.170708 51.12994 62.271881 53.103001 60.483997 C 54.519234 59.122742 55.378902 57.283646 55.514999 55.323997 C 52.415001 55.323997 49.307999 55.342999 46.204998 55.323997 L 46.204998 51.473 L 59.277 51.473 C 59.950001 55.605 58.977001 60.259998 55.836998 63.213997 C 53.688694 65.298195 50.876858 66.562019 47.891998 66.785004 C 45.004627 67.079651 42.094978 66.506561 39.535 65.139 C 36.46204 63.494419 34.090508 60.790295 32.861 57.528999 C 31.746506 54.525089 31.713266 51.226761 32.766998 48.200996 C 33.741398 45.453529 35.535938 43.07151 37.908001 41.376999 C 40.195087 39.729584 42.908173 38.775581 45.723 38.628998 Z"/>
        <path id="Path19" fill="#72767d" stroke="none" d="M 120.689995 39.600998 L 124.689995 39.600998 L 124.689995 66.300995 C 123.362999 66.300995 122.016991 66.32 120.689995 66.281998 C 120.709007 57.402 120.689995 48.502998 120.689995 39.604004 Z"/>
        <path id="Path20" fill="#72767d" stroke="none" d="M 68.17601 48.854996 C 70.677887 48.371155 73.268967 48.924454 75.355011 50.388 C 77.220276 51.724262 78.488403 53.737549 78.888 55.996998 C 79.459961 58.77 78.699661 61.650795 76.833817 63.780411 C 74.967972 65.910034 72.212128 67.042442 69.388 66.839996 C 66.690994 66.694763 64.197861 65.358986 62.583004 63.194 C 60.820843 60.731667 60.360928 57.568165 61.348995 54.706001 C 62.393887 51.66201 65.005295 49.422569 68.173004 48.853996 M 68.734009 52.405998 C 67.708084 52.67094 66.79213 53.253342 66.117004 54.07 C 64.296417 56.364552 64.423859 59.64463 66.417007 61.791 C 67.579437 62.960358 69.245483 63.478256 70.865997 63.173996 C 72.35083 62.88591 73.627502 61.94558 74.343002 60.612999 C 75.607361 58.306179 75.195724 55.441486 73.333008 53.584 C 72.092651 52.450695 70.369415 52.009392 68.737 52.406998 Z"/>
        <path id="Path21" fill="#72767d" stroke="none" d="M 87.992996 48.855003 C 91.75972 48.071938 95.611496 49.744987 97.610207 53.032307 C 99.608925 56.319633 99.321663 60.50922 96.892982 63.493 C 95.093552 65.66864 92.398758 66.902985 89.576004 66.844543 C 86.75325 66.786087 84.111862 65.441254 82.404007 63.192997 C 80.61235 60.669544 80.172134 57.42786 81.225998 54.518002 C 82.317276 51.562717 84.892776 49.406952 87.994003 48.853004 M 88.555008 52.404999 C 87.533829 52.670139 86.619675 53.244747 85.938004 54.049999 C 84.137466 56.309406 84.224442 59.536816 86.143997 61.696003 C 87.314011 62.932964 89.033035 63.489521 90.706009 63.173 C 92.185471 62.872746 93.457474 61.935848 94.182999 60.612003 C 95.436844 58.290661 95.010513 55.420616 93.136002 53.563999 C 91.898575 52.437244 90.180435 52.002449 88.556015 52.404999 Z"/>
        <path id="Path22" fill="#72767d" stroke="none" d="M 104.798988 49.940002 C 106.985573 48.513779 109.748817 48.302231 112.126991 49.378998 C 112.837654 49.73381 113.482582 50.207268 114.034004 50.778999 C 114.052986 50.278999 114.034004 49.750999 114.052986 49.226997 C 115.306007 49.246002 116.557991 49.226997 117.828987 49.246002 L 117.828987 65.737 C 117.938515 68.278442 117.060982 70.763771 115.380013 72.673004 C 113.310646 74.580322 110.461983 75.398163 107.695992 74.878998 C 104.766701 74.37326 102.298866 72.405914 101.152992 69.663002 C 102.275002 69.121002 103.453011 68.691002 104.612007 68.186005 C 105.232002 69.772308 106.59742 70.948586 108.258003 71.326996 C 109.972725 71.71167 111.76133 71.137665 112.932014 69.827003 C 114.091011 68.406006 114.091011 66.462006 114.03199 64.727005 C 113.20649 65.617302 112.152596 66.264099 110.984993 66.597 C 108.333107 67.232666 105.538612 66.511093 103.526009 64.671005 C 101.340889 62.740974 100.199928 59.889473 100.450508 56.984837 C 100.701118 54.080208 102.313637 51.466263 104.797005 49.939003 M 108.667 52.332001 C 107.518044 52.532703 106.477791 53.135227 105.732002 54.032001 C 103.96891 56.223682 103.976845 59.349281 105.751015 61.532005 C 106.785408 62.761345 108.357613 63.404282 109.957008 63.251999 C 111.45713 63.073555 112.782906 62.192177 113.527992 60.877998 C 114.785988 58.614952 114.533821 55.81308 112.892006 53.811001 C 111.834267 52.620525 110.236061 52.061813 108.667 52.334003 Z"/>
        <path id="Path23" fill="#72767d" stroke="none" d="M 129.496002 50.893005 C 131.816345 48.772148 135.123291 48.117004 138.077026 49.193001 C 140.805969 50.221001 142.544983 52.82 143.424011 55.493 C 139.367004 57.176003 135.328979 58.839001 131.272003 60.521999 C 131.792267 61.630207 132.714661 62.498966 133.85199 62.952 C 135.511658 63.564159 137.368164 63.297115 138.788025 62.242001 C 139.309937 61.81052 139.774719 61.314175 140.171021 60.765003 C 141.198975 61.457005 142.22699 62.130001 143.255981 62.821003 C 141.667847 65.167191 139.082764 66.645676 136.255249 66.824905 C 133.427795 67.004135 130.676666 65.863876 128.804993 63.737003 C 125.701355 59.913792 126.000549 54.360615 129.497009 50.893005 M 131.497009 54.352001 C 130.883453 55.281651 130.576111 56.379936 130.618011 57.493 C 133.328684 56.371001 136.039347 55.243001 138.75 54.109001 C 138.243164 53.083981 137.250183 52.38673 136.114014 52.257999 C 134.300659 52.014019 132.507263 52.827217 131.496002 54.352001 Z"/>
    </g>
</svg>
