<svg width="24" height="17" viewBox="0 0 24 17" fill="none" xmlns="http://www.w3.org/2000/svg">
<path d="M14.1135 14.1135V2.45705C14.1135 1.65454 13.459 1 12.6564 1H2.45705C1.65454 1 1 1.65454 1 2.45705V12.6564C1 13.459 1.65454 14.1135 2.45705 14.1135H3.80743M17.0959 14.1135H7.24412" stroke="#0085FF" stroke-miterlimit="10"/>
<path d="M14.0013 5.37097H19.1221C19.6059 5.37097 20.0669 5.61571 20.3344 6.01982L22.6053 9.37218C22.7704 9.61123 22.8501 9.89581 22.8501 10.1861V12.6562C22.8501 13.4588 22.2012 14.1133 21.393 14.1133H20.0157M5.37112 12.6562C4.5686 12.6562 3.91406 13.3108 3.91406 14.1133C3.91406 14.9158 4.5686 15.5704 5.37112 15.5704C6.17363 15.5704 6.82817 14.9158 6.82817 14.1133C6.82817 13.3108 6.17363 12.6562 5.37112 12.6562Z" stroke="#0085FF" stroke-miterlimit="10"/>
<path d="M18.4453 12.6561C17.6371 12.6561 16.9883 13.3107 16.9883 14.1132C16.9883 14.9157 17.6371 15.5702 18.4453 15.5702C19.2479 15.5702 19.9024 14.9157 19.9024 14.1132C19.9024 13.3107 19.2479 12.6561 18.4453 12.6561Z" stroke="#0085FF" stroke-miterlimit="10"/>
</svg>
