<svg width="22" height="19" viewBox="0 0 22 19" fill="none" xmlns="http://www.w3.org/2000/svg">
<path d="M17.5477 5.79468H19.0508C19.8787 5.79468 20.5539 6.46991 20.5539 7.29781V16.3166C20.5539 17.1445 19.8787 17.8197 19.0508 17.8197H5.52266C4.69476 17.8197 4.01953 17.1445 4.01953 16.3166V13.3103" stroke="#0085FF" stroke-miterlimit="10"/>
<path d="M17.5471 8.8008H20.5534M16.044 13.3102H2.51582C1.68793 13.3102 1.0127 12.6349 1.0127 11.8071V2.78828C1.0127 1.96039 1.68793 1.28516 2.51582 1.28516H16.044C16.8719 1.28516 17.5471 1.96039 17.5471 2.78828V11.8071C17.5471 12.6349 16.8719 13.3102 16.044 13.3102ZM1.0127 4.29141H17.5471H1.0127Z" stroke="#0085FF" stroke-miterlimit="10"/>
</svg>
