<?xml version="1.0" encoding="UTF-8"?>
<!-- Generated by Pixelmator Pro 3.7 -->
<svg width="176" height="115" viewBox="0 0 176 115" xmlns="http://www.w3.org/2000/svg">
    <g id="Layer-1-copia">
        <path id="Trazado" fill="#72767d" stroke="none" d="M 65.95089 49.852043 L 65.95089 65.342117 L 69.945488 65.342117 L 69.945488 49.852043 L 65.95089 49.852043 Z"/>
        <path id="path1" fill="#72767d" stroke="none" d="M 80.827965 49.596695 C 84.218948 49.596695 86.308609 51.269249 87.446411 53.196537 L 84.10247 54.961456 C 83.475349 53.940159 82.291084 53.126537 80.827965 53.126537 C 78.296478 53.126537 76.508621 55.077938 76.508621 57.609425 C 76.508621 60.140316 78.296478 62.091133 80.827965 62.091133 C 82.035751 62.091133 83.12706 61.672848 83.754204 61.162201 L 83.754204 59.861462 L 80.200829 59.861462 L 80.200829 56.540462 L 87.67878 56.540462 L 87.67878 62.602371 C 86.006813 64.436707 83.754204 65.620956 80.827965 65.620956 C 76.20681 65.620956 72.444603 62.531784 72.444603 57.609425 C 72.444603 52.685883 76.20681 49.596695 80.827965 49.596695"/>
        <path id="path2" fill="#72767d" stroke="none" d="M 94.65432 55.983356 L 94.65432 65.342117 L 90.659721 65.342117 L 90.659721 49.852615 L 94.77021 49.852615 L 101.040962 58.770161 L 101.040962 49.852615 L 105.05851 49.852615 L 105.05851 65.342117 L 101.203331 65.342117"/>
        <path id="path3" fill="#72767d" stroke="none" d="M 108.42186 49.852043 L 108.42186 65.342117 L 112.416458 65.342117 L 112.416458 49.852043 L 108.42186 49.852043 Z"/>
        <path id="path4" fill="#72767d" stroke="none" d="M 118.703674 53.335983 L 114.360779 53.335983 L 114.360779 49.852028 L 127.017601 49.852028 L 127.017601 53.335983 L 122.697662 53.335983 L 122.697662 65.342117 L 118.703674 65.342117"/>
        <path id="path5" fill="#72767d" stroke="none" d="M 129.001373 49.852631 L 140.357437 49.852631 L 140.357437 53.219501 L 132.995956 53.219501 L 132.995956 55.797451 L 140.195068 55.797451 L 140.195068 59.188446 L 132.995956 59.188446 L 132.995956 61.97525 L 140.357437 61.97525 L 140.357437 65.342117 L 129.001373 65.342117"/>
        <path id="path6" fill="#fffffe" stroke="none" d="M 48.864723 73.583702 C 48.974724 73.115402 48.778812 72.586517 48.281696 72.342361 C 48.778812 72.586517 48.974724 73.115402 48.864723 73.583702"/>
        <path id="path7" fill="#fffffe" stroke="none" d="M 48.620571 72.881256 C 48.6035 72.937134 48.581738 72.991852 48.555256 73.0448 C 48.581738 72.991852 48.6035 72.937134 48.620571 72.881256"/>
        <path id="path8" fill="#38377f" stroke="none" d="M 48.593494 72.965973 C 48.612907 72.933617 48.631142 72.90007 48.64761 72.866554 C 48.631142 72.90007 48.612907 72.933617 48.593494 72.965973 M 48.585255 72.978912 C 48.588203 72.974213 48.590553 72.9701 48.593494 72.965973 C 48.590553 72.9701 48.588203 72.974213 48.585255 72.978912 M 48.582314 72.98362 C 48.583496 72.981865 48.58466 72.980103 48.585255 72.978912 C 48.58466 72.980103 48.583496 72.981865 48.582314 72.98362 M 48.528198 73.059525 C 48.547607 73.034805 48.565845 73.009506 48.582314 72.98362 C 48.565845 73.009506 48.547607 73.034805 48.528198 73.059525"/>
        <path id="path9" fill="#38377f" stroke="none" d="M 48.585274 72.978928 L 48.585274 72.978928"/>
        <path id="path10" fill="#38377f" stroke="none" d="M 48.582333 72.98362 C 48.584682 72.976563 48.586441 72.9701 48.588203 72.963028 C 48.586441 72.9701 48.584682 72.976563 48.582333 72.98362 M 48.579975 72.991852 C 48.580551 72.989502 48.581738 72.986557 48.582333 72.98362 C 48.581738 72.986557 48.580551 72.989502 48.579975 72.991852 M 48.577621 72.998337 C 48.578197 72.995972 48.579384 72.994209 48.579975 72.991852 C 48.579384 72.994209 48.578197 72.995972 48.577621 72.998337"/>
        <path id="path11" fill="#38377f" stroke="none" d="M 48.579975 72.991882 L 48.579975 72.991882"/>
        <path id="path12" fill="#2a2e79" stroke="none" d="M 48.582333 72.983635 L 48.582333 72.983635"/>
        <path id="path13" fill="#38377f" stroke="none" d="M 48.588219 72.963043 C 48.591736 72.951859 48.595272 72.940102 48.59763 72.928314 C 48.595272 72.940102 48.591736 72.951859 48.588219 72.963043"/>
        <path id="path14" fill="#38377f" stroke="none" d="M 48.591145 72.964806 L 48.588203 72.963028 L 48.591145 72.964806 M 48.593494 72.965973 L 48.591145 72.964806 L 48.593494 72.965973 M 48.874115 73.115402 L 48.593494 72.965973 L 48.874115 73.115402 M 49.522438 73.461922 L 49.495361 73.447205 L 48.874115 73.115402 L 49.495361 73.447205 L 49.522438 73.461922"/>
        <path id="path15" fill="#38377f" stroke="none" d="M 48.87413 73.115417 L 48.87413 73.115417"/>
        <path id="path16" fill="#38377f" stroke="none" d="M 48.591145 72.964806 L 48.591145 72.964806"/>
        <path id="path17" fill="#2a2e79" stroke="none" d="M 48.593494 72.965988 L 48.593494 72.965988"/>
        <path id="path18" fill="#38377f" stroke="none" d="M 48.588219 72.963043 L 47.653385 72.464142 L 48.588219 72.963043"/>
        <path id="path19" fill="#2a2e79" stroke="none" d="M 48.588219 72.963043 L 48.588219 72.963043"/>
        <path id="path20" fill="#72767d" stroke="none" d="M 45.723747 68.686066 L 45.723747 76.280502 L 45.718449 76.280502 L 45.718449 82 L 50.444897 82 L 50.444897 68.686066"/>
        <path id="path21" fill="#72767d" stroke="none" d="M 41.164375 68.686066 L 41.164375 74.070816 L 41.160839 74.070816 L 41.160839 78.106018 L 44.511818 78.106018 L 44.511818 68.686066"/>
        <path id="path22" fill="#72767d" stroke="none" d="M 51.599747 68.686066 L 51.599747 74.070816 L 51.59621 74.070816 L 51.59621 78.106018 L 54.966618 78.106018 L 54.966618 68.686066"/>
        <path id="path23" fill="#72767d" stroke="none" d="M 58.998276 56.931118 L 58.998276 49.820267 L 54.966599 49.820267 L 54.966599 39.920242 L 52.922821 39.920242 L 50.171322 33 L 45.95612 33 L 43.204617 39.920242 L 41.160839 39.920242 L 41.160839 49.820267 L 37.129757 49.820267 L 37.129757 56.931118 L 35.27895 56.931118 L 35.27895 65.302124 L 39.345921 65.302124 L 39.345921 56.931118 L 41.160839 56.931118 L 41.160839 65.328583 L 54.966599 65.328583 L 54.966599 56.931118 L 56.781536 56.931118 L 56.781536 65.302124 L 60.848495 65.302124 L 60.848495 56.931118 M 48.064026 46.395149 C 46.561481 46.395149 45.343685 45.177353 45.343685 43.674812 C 45.343685 42.172279 46.561481 40.955078 48.064026 40.955078 C 49.56596 40.955078 50.783752 42.172279 50.783752 43.674812 C 50.783752 45.177353 49.56596 46.395149 48.064026 46.395149"/>
    </g>
</svg>
