<?xml version="1.0" encoding="UTF-8"?>
<!-- Generated by Pixelmator Pro 3.7 -->
<svg width="176" height="115" viewBox="0 0 176 115" xmlns="http://www.w3.org/2000/svg">
    <g id="jetbrains-mono-white">
        <path id="Trazado" fill="#72767d" stroke="none" d="M 56.65675 61.292999 C 56.65675 61.716 56.567249 62.0895 56.388248 62.417999 C 56.216389 62.740952 55.953064 63.00602 55.631248 63.18 C 55.30275 63.359001 54.93425 63.448997 54.51125 63.448997 L 52.414749 63.448997 L 52.414749 66.500999 L 54.95425 66.500999 C 55.910248 66.500999 56.76675 66.287003 57.528248 65.858498 C 58.276623 65.442734 58.896618 64.829666 59.320747 64.085999 C 59.75375 63.334499 59.973248 62.487999 59.973248 61.542 L 59.973248 51.508999 L 56.65675 51.508999 L 56.65675 61.292999 Z M 65.584747 60.3815 L 72.530251 60.3815 L 72.530251 57.578499 L 65.584747 57.578499 L 65.584747 54.396999 L 73.262245 54.396999 L 73.262245 51.508999 L 62.353249 51.508999 L 62.353249 66.496002 L 73.47625 66.496002 L 73.47625 63.608002 L 65.584747 63.608002 L 65.584747 60.3815 Z M 74.51725 54.481499 L 78.958252 54.481499 L 78.958252 66.491501 L 82.27475 66.491501 L 82.27475 54.481499 L 86.695747 54.481499 L 86.695747 51.508999 L 74.512245 51.508999 L 74.512245 54.4865 L 74.51725 54.481499 Z M 98.028252 58.982498 C 97.762695 58.84306 97.482025 58.73452 97.19175 58.659 C 97.411255 58.597298 97.624641 58.515621 97.829247 58.415001 C 98.377251 58.131001 98.810249 57.733002 99.118752 57.220001 C 99.42775 56.707001 99.586746 56.119999 99.586746 55.452499 C 99.586746 54.690498 99.377747 54.008499 98.964752 53.405998 C 98.551247 52.808502 97.96875 52.3405 97.221748 52.001999 C 96.474747 51.667999 95.618752 51.499001 94.66275 51.499001 L 88.005249 51.499001 L 88.005249 66.486 L 94.792252 66.486 C 95.797752 66.486 96.694252 66.311996 97.485748 65.958496 C 98.272247 65.604996 98.88475 65.117004 99.32325 64.484497 C 99.756248 63.857002 99.97525 63.139999 99.97525 62.3335 C 99.97525 61.591499 99.806252 60.929501 99.46225 60.341999 C 99.125732 59.760239 98.629921 59.286804 98.033249 58.977501 L 98.028252 58.982498 Z M 91.226746 54.023499 L 94.169746 54.023499 C 94.577751 54.023499 94.936249 54.098499 95.250252 54.2425 C 95.55043 54.375481 95.804955 54.59367 95.982246 54.869999 C 96.15625 55.1385 96.24575 55.4575 96.24575 55.820999 C 96.24575 56.184502 96.15625 56.528 95.982246 56.811501 C 95.807747 57.095501 95.563751 57.309502 95.250252 57.464001 C 94.936249 57.6185 94.577751 57.693001 94.169746 57.693001 L 91.226746 57.693001 L 91.226746 54.017998 L 91.226746 54.022999 Z M 96.295746 63.0905 C 96.10675 63.374001 95.837746 63.593498 95.494247 63.747498 C 95.145752 63.902 94.752251 63.976501 94.299248 63.976501 L 91.226746 63.976501 L 91.226746 60.1325 L 94.299248 60.1325 C 94.742249 60.1325 95.13575 60.217499 95.484253 60.3815 C 95.827751 60.545998 96.101746 60.775002 96.290749 61.073997 C 96.479752 61.372498 96.57975 61.710999 96.57975 62.094498 C 96.57975 62.478001 96.484749 62.806499 96.295746 63.0905 Z M 111.09375 60.436501 C 111.925247 60.038002 112.567245 59.475502 113.025749 58.753502 C 113.483749 58.031502 113.712746 57.195 113.712746 56.238998 C 113.712746 55.283001 113.488747 54.476501 113.040749 53.759499 C 112.592247 53.0425 111.955246 52.489502 111.133751 52.0965 C 110.311752 51.702999 109.360748 51.508999 108.275246 51.508999 L 101.713249 51.508999 L 101.713249 66.496002 L 105.034248 66.496002 L 105.034248 61.039001 L 107.195251 61.039001 L 110.237251 66.496002 L 114.026253 66.496002 L 110.600746 60.636002 C 110.770248 60.576 110.939247 60.511002 111.098747 60.436501 L 111.09375 60.436501 Z M 110.01825 57.3745 C 109.833839 57.689941 109.557762 57.941772 109.226746 58.0965 C 108.882751 58.265499 108.479752 58.349998 108.016747 58.349998 L 105.029251 58.349998 L 105.029251 54.202499 L 108.016747 54.202499 C 108.479752 54.202499 108.882751 54.287498 109.226746 54.4515 C 109.556396 54.605896 109.832123 54.855667 110.01825 55.168499 C 110.202248 55.477001 110.297249 55.846001 110.297249 56.2635 C 110.297249 56.681999 110.202248 57.050499 110.01825 57.364502 L 110.01825 57.3745 Z M 120.315247 51.508999 L 114.96225 66.496002 L 118.333252 66.496002 L 119.393745 63.190002 L 124.950752 63.190002 L 126.085747 66.496002 L 129.391739 66.496002 L 123.909752 51.508999 L 120.315247 51.508999 Z M 120.145752 60.6805 L 121.868248 55.392502 L 122.072746 54.431499 L 122.276749 55.392502 L 124.119247 60.6805 L 120.145752 60.6805 Z M 130.492249 66.496002 L 133.91774 66.496002 L 133.91774 51.508999 L 130.492249 51.508999 L 130.492249 66.496002 Z M 146.002243 61.646 L 139.554245 51.508999 L 136.322739 51.508999 L 136.322739 66.496002 L 139.35025 66.496002 L 139.35025 56.358498 L 145.763245 66.496002 L 149.029755 66.496002 L 149.029755 51.508999 L 146.002243 51.508999 L 146.002243 61.6465 Z M 161.766251 59.968498 C 161.442749 59.346001 160.984253 58.823502 160.401749 58.400002 C 159.819244 57.976997 159.147247 57.697998 158.390244 57.553497 L 155.841248 57.030998 C 155.442749 56.936001 155.124252 56.771999 154.890244 56.533001 C 154.655746 56.293999 154.536255 55.994999 154.536255 55.641502 C 154.536255 55.318001 154.621246 55.039001 154.795242 54.799999 C 154.964752 54.561001 155.208755 54.376999 155.517242 54.2425 C 155.826248 54.108002 156.184753 54.043499 156.592743 54.043499 C 157.001251 54.043499 157.369751 54.112999 157.683243 54.252499 C 157.99675 54.391998 158.240753 54.585999 158.415253 54.84 C 158.590652 55.092747 158.682922 55.393875 158.679245 55.7015 L 162.000244 55.7015 C 161.980255 54.830002 161.736252 54.057999 161.278244 53.390999 C 160.820251 52.719002 160.17775 52.195999 159.361252 51.817501 C 158.544754 51.438999 157.608749 51.25 156.562744 51.25 C 155.517242 51.25 154.591248 51.444 153.779755 51.837502 C 152.968246 52.230999 152.33075 52.773499 151.877747 53.470501 C 151.424744 54.167999 151.195755 54.959499 151.195755 55.850502 C 151.195755 56.572502 151.339752 57.224998 151.633743 57.802498 C 151.922516 58.379387 152.348068 58.876846 152.873245 59.251499 C 153.411255 59.635002 154.028748 59.9035 154.735748 60.053001 L 157.43425 60.6105 C 157.877243 60.7155 158.226242 60.9095 158.484756 61.188499 C 158.743744 61.466999 158.868256 61.810501 158.868256 62.2285 C 158.872284 62.55154 158.772949 62.867416 158.584747 63.129997 C 158.395248 63.393997 158.131256 63.598 157.792755 63.7425 C 157.454254 63.887001 157.055756 63.956497 156.597748 63.956497 C 156.139755 63.956497 155.706757 63.876999 155.333252 63.717499 C 154.959747 63.558502 154.670746 63.329498 154.466751 63.030502 C 154.257751 62.737 154.158249 62.392998 154.158249 62.010002 L 150.83725 62.010002 C 150.851746 62.945999 151.100754 63.767502 151.59375 64.484497 C 152.081757 65.196503 152.753754 65.754501 153.610245 66.152496 C 154.466751 66.551003 155.447754 66.75 156.553253 66.75 C 157.658249 66.75 158.654251 66.545998 159.510742 66.137497 C 160.372253 65.7295 161.039246 65.166504 161.522247 64.449501 C 162.005249 63.732498 162.244247 62.920998 162.244247 62.0145 C 162.244247 61.273003 162.079742 60.591 161.756256 59.963501 L 161.766251 59.968498 Z M 19.914749 64.5 L 28.414749 64.5 L 28.414749 66.5 L 19.914749 66.5 L 19.914749 64.5 Z"/>
        <path id="path1" fill="#72767d" fill-rule="evenodd" stroke="none" d="M 23.584749 42.830002 L 17.414749 49 L 15.244749 51.169998 C 14.072904 52.342464 13.41466 53.932323 13.414749 55.59 L 13.414749 70.5 C 13.414749 71.879997 14.534749 73 15.914749 73 L 30.824749 73 C 32.484749 73 34.069748 72.339996 35.244747 71.169998 L 37.414749 69 L 43.584747 62.830002 C 44.754749 61.66 45.414749 60.07 45.414749 58.41 L 45.414749 43.5 C 45.414749 42.120003 44.294746 41 42.914749 41 L 28.004749 41 C 26.344749 41 24.759748 41.660004 23.584749 42.830002 Z M 37.414749 69 L 37.414749 49 L 17.414749 49 L 17.414749 69 L 37.414749 69 Z"/>
    </g>
</svg>
