<?xml version="1.0" encoding="UTF-8"?>
<!-- Generated by Pixelmator Pro 3.6.18 -->
<svg width="800" height="800" viewBox="0 0 800 800" xmlns="http://www.w3.org/2000/svg">
    <g id="SVGRepobgCarrier"/>
    <g id="SVGRepotracerCarrier"/>
    <g id="SVGRepoiconCarrier">
        <g id="Layerx00201">
            <path id="Trazado" fill="#035925" fill-rule="evenodd" stroke="none" d="M 684.960999 496.097839 L 183.068817 496.097839 C 179.262283 496.097839 176.408768 493.24295 176.408768 489.437775 L 176.408768 427.593811 C 176.408768 418.764526 189.727585 418.764526 189.727585 427.593811 L 189.727585 482.77774 L 678.299683 482.77774 L 678.299683 356.710022 C 678.299683 279.167664 615.02771 216.370544 537.484985 216.370544 L 330.543335 216.370544 C 285.349548 216.370544 243.010727 238.254028 216.368988 275.359497 C 210.652451 282.744446 200.206085 274.019165 205.427246 267.272644 C 234.445938 226.835693 281.06778 202.57373 330.543182 202.57373 L 537.960083 202.575073 C 623.115601 202.575073 692.57135 271.55426 692.57135 356.709839 L 692.57135 489.437531 C 692.096191 493.242737 688.764771 496.097626 684.959656 496.097626 Z"/>
            <path id="path1" fill="#035925" fill-rule="evenodd" stroke="none" d="M 434.253174 496.097839 C 430.446655 496.097839 427.593109 493.24295 427.593109 489.437775 L 427.593109 356.710022 C 427.116638 287.25293 375.737946 227.787354 307.233978 217.322327 C 303.427429 216.847168 301.049011 213.040588 301.5242 209.710571 C 302.000671 206.379211 305.805847 203.525635 309.135925 204.000793 C 384.3013 215.419006 440.437012 281.069397 440.437012 356.708923 L 440.437012 489.436646 C 440.913483 493.243195 438.058594 496.098053 434.253418 496.098053 Z"/>
            <path id="path2" fill="#035925" fill-rule="evenodd" stroke="none" d="M 463.749237 657.367798 L 403.807068 657.367798 C 400.000549 657.367798 397.147003 654.514282 397.147003 650.707764 L 397.147003 489.436371 C 397.147003 485.629883 400.000549 482.776337 403.807068 482.776337 L 463.749237 482.776337 C 467.554382 482.776337 470.409332 485.629883 470.409332 489.436371 L 470.409332 650.707764 C 470.88446 654.512939 467.554443 657.367798 463.749237 657.367798 Z M 410.943665 644.047607 L 457.08786 644.047607 L 457.08786 496.571533 L 410.943665 496.571533 L 410.943665 644.047607 Z"/>
            <path id="path3" fill="#035925" fill-rule="evenodd" stroke="none" d="M 514.649902 687.340393 L 353.378571 687.340393 C 349.572021 687.340393 346.718475 684.486877 346.718475 680.680359 L 346.718475 650.233521 C 346.718475 646.428345 349.572021 643.574768 353.378571 643.574768 L 514.649902 643.574768 C 518.456421 643.574768 521.309937 646.428345 521.309937 650.233521 L 521.309937 680.2052 C 521.309937 684.486877 518.455017 687.340393 514.649902 687.340393 Z M 360.038605 673.545105 L 507.513306 673.545105 L 507.513306 656.894897 L 360.038605 656.893555 L 360.038605 673.545105 Z"/>
            <path id="path4" fill="#035925" fill-rule="evenodd" stroke="none" d="M 359.561646 434.253174 L 120.271378 434.253174 C 113.136154 434.253174 107.427727 429.019867 107.427727 421.883331 L 107.427727 276.311829 C 107.427727 269.175232 113.136154 263.941956 120.271378 263.941956 L 359.561646 263.941956 C 366.698242 263.941956 371.931519 269.175293 371.931519 276.311829 L 371.931519 421.883331 C 371.931519 429.019928 366.22171 434.253174 359.561646 434.253174 Z M 121.224174 420.456543 L 358.134705 420.456543 L 358.134705 277.738586 L 121.224174 277.738586 L 121.224174 420.456543 Z M 359.561646 277.738586 L 359.561646 277.738586 Z"/>
            <path id="path5" fill="#035925" fill-rule="evenodd" stroke="none" d="M 239.205261 386.205139 C 235.875214 386.205139 233.020309 385.253479 230.641891 382.873718 L 110.759338 279.167542 C 102.951881 271.360046 112.942017 262.036804 120.274315 269.652527 L 239.206833 372.410095 L 359.563263 268.699768 C 366.6539 262.11792 375.279358 272.552185 369.078217 278.214722 L 367.652802 279.641479 L 248.243713 382.873871 C 245.865295 385.253632 242.535263 386.205261 239.205215 386.205261 Z M 115.040733 281.069214 C 115.040733 281.069214 115.040733 281.069214 115.040733 281.069214 Z"/>
            <path id="path6" fill="#035925" fill-rule="evenodd" stroke="none" d="M 362.894226 433.300049 C 361.466125 433.300049 359.562836 432.824921 358.612579 431.398132 L 271.078613 355.282379 C 264.286255 349.498322 273.425964 339.049255 280.118408 345.290894 L 367.652405 421.406677 C 372.938293 425.908386 368.620209 433.300049 362.894196 433.300049 Z M 116.467361 432.824921 C 110.360725 432.824921 106.987495 424.925659 111.70919 420.931519 L 199.243149 345.767548 C 206.377014 339.731049 214.677124 350.331299 208.281616 355.757629 L 120.749046 431.398193 C 119.322273 432.349823 117.89415 432.825012 116.467361 432.825012 Z"/>
            <path id="path7" fill="#035925" fill-rule="evenodd" stroke="none" d="M 518.93219 372.408539 C 495.145416 372.408539 476.116791 353.379913 476.116791 330.068359 C 476.116791 306.281586 495.145416 287.252991 518.93219 287.252991 C 542.242432 287.252991 561.272339 306.281586 561.272339 330.068359 C 561.272339 353.379944 542.242432 372.408539 518.93219 372.408539 Z M 518.93219 301.049561 C 502.757111 301.049561 489.913452 313.893219 489.913452 330.068298 C 489.913452 345.768188 502.757111 358.611877 518.93219 358.611877 C 534.63208 358.611877 547.475769 345.76825 547.475769 330.068298 C 547.475769 313.893219 534.630737 301.049561 518.93219 301.049561 Z"/>
            <path id="path8" fill="#035925" fill-rule="evenodd" stroke="none" d="M 518.93219 301.049255 C 515.12561 301.049255 512.272095 298.195679 512.272095 294.38916 L 512.270752 119.797791 C 512.270752 110.968567 525.590881 110.968567 525.590881 119.797791 L 525.590881 293.914276 C 525.592224 298.195984 522.262207 301.0495 518.932129 301.0495 Z"/>
            <path id="path9" fill="#035925" fill-rule="evenodd" stroke="none" d="M 518.93219 165.943115 L 446.621429 165.943115 C 440.359558 165.943115 437.912323 158.002014 441.864624 154.049683 L 456.611542 139.302795 L 441.864624 124.555847 C 438.27002 120.961243 439.714355 112.662476 446.621429 112.662476 L 518.93219 112.661133 C 522.738708 112.661133 525.592224 115.514648 525.592224 119.321167 L 525.592224 158.806396 C 525.592224 163.088074 522.262207 165.942993 518.93219 165.942993 Z M 463.271637 152.622925 L 511.795593 152.622925 L 511.795593 126.932922 L 462.796783 126.932922 C 476.319397 140.455566 476.312653 138.765564 463.271912 152.622925 Z"/>
        </g>
    </g>
</svg>
