<?xml version="1.0" encoding="UTF-8"?>
<!-- Generated by Pixelmator Pro 3.7 -->
<svg width="176" height="115" viewBox="0 0 176 115" xmlns="http://www.w3.org/2000/svg">
    <g id="Agrupar-copia">
        <path id="Trazado" fill="#72767d" fill-rule="evenodd" stroke="none" d="M 153.154602 49.768715 C 153.018784 49.795876 152.882355 50.095566 152.882355 50.25885 C 152.855209 51.348969 152.828033 54.237251 152.828033 56.198994 C 152.828033 56.253616 152.909531 56.362572 152.991318 56.362572 C 153.399979 56.389732 154.380844 56.416901 155.225586 56.416901 C 156.397202 56.416901 157.078384 56.253616 157.460159 56.09034 C 158.440735 55.599606 158.904007 54.536945 158.904007 53.365036 C 158.904007 50.72242 157.051208 49.714088 154.299042 49.714088 C 154.108307 49.68692 153.563828 49.68692 153.154602 49.768715 Z M 160.18486 61.948391 C 160.18486 59.250858 158.195663 57.752087 154.59903 57.752087 C 154.435455 57.752087 153.291016 57.724926 153.018494 57.779255 C 152.936691 57.806709 152.828033 57.861336 152.828033 57.943127 C 152.828033 59.877407 152.800583 62.95673 152.882355 64.155502 C 152.936691 64.673103 153.318466 65.408905 153.781738 65.626808 C 154.271881 65.899338 155.389175 65.953674 156.15213 65.953674 C 158.304611 65.953674 160.18486 64.754898 160.18486 61.948391 Z M 147.596542 48.270241 C 147.868774 48.270241 148.686066 48.35173 150.78421 48.35173 C 152.773407 48.35173 154.353668 48.297401 156.288239 48.297401 C 158.65863 48.297401 161.928406 49.141861 161.928406 52.684155 C 161.928406 54.42799 160.702164 55.817806 159.094742 56.498985 C 159.013245 56.52615 159.013245 56.580471 159.094742 56.607639 C 161.383347 57.180161 163.400009 58.59684 163.400009 61.266926 C 163.400009 63.882973 161.765121 65.545021 159.39444 66.580513 C 157.950302 67.207069 156.15213 67.424973 154.326508 67.424973 C 152.936691 67.424973 149.203949 67.261696 147.133255 67.316315 C 146.915344 67.234238 147.324005 66.253365 147.514435 66.09008 C 148.005173 66.062622 148.386353 66.035461 148.904266 65.87188 C 149.64006 65.681427 149.721558 65.463226 149.830505 64.346245 C 149.885132 63.39254 149.885132 60.013523 149.885132 57.615971 C 149.885132 54.319042 149.912598 52.084766 149.885132 50.994942 C 149.857971 50.150482 149.558273 49.877663 148.958878 49.714088 C 148.495316 49.632591 147.732651 49.523338 147.105789 49.441849 C 146.969391 49.305443 147.432663 48.378899 147.596542 48.270241 Z M 131.874237 65.21817 C 132.528549 65.735474 133.809113 65.953369 134.953568 65.953369 C 136.424881 65.953369 137.896194 65.681427 139.313156 64.400276 C 140.757309 63.092846 141.765335 61.076477 141.765335 57.861336 C 141.765335 54.782013 140.593719 52.275219 138.195877 50.804207 C 136.833527 49.95916 135.089691 49.605431 133.073318 49.605431 C 132.473938 49.605431 131.901718 49.632591 131.547684 49.795876 C 131.465607 49.850494 131.275162 50.095566 131.275162 50.231682 C 131.220535 50.776741 131.220535 54.972755 131.220535 57.425232 C 131.220535 59.959194 131.220535 63.501492 131.275162 63.910141 C 131.275162 64.319077 131.465607 64.945633 131.874542 65.21817 Z M 125.689041 48.269943 C 126.206932 48.269943 128.195847 48.35173 129.149551 48.35173 C 130.866516 48.35173 132.092453 48.270241 135.334747 48.270241 C 138.059464 48.270241 140.348358 49.005745 141.983246 50.395264 C 143.972153 52.111935 145.007935 54.48262 145.007935 57.370605 C 145.007935 61.485126 143.127686 63.855804 141.247437 65.21817 C 139.367783 66.607681 136.915314 67.424973 133.427643 67.424973 C 131.57486 67.424973 128.386871 67.370651 125.74366 67.343185 L 125.716499 67.343185 C 125.580376 67.098114 125.934395 66.144409 126.152306 66.117241 C 126.860939 66.035461 127.051689 66.007996 127.406006 65.872177 C 127.977928 65.653976 128.087173 65.354279 128.168961 64.346245 C 128.250458 62.465996 128.223297 60.204559 128.223297 57.643139 C 128.223297 55.817806 128.250458 52.248051 128.195847 51.103603 C 128.114349 50.150192 127.705696 49.904831 126.8881 49.741249 C 126.479462 49.65976 125.934395 49.550507 125.171738 49.469017 C 125.062485 49.277977 125.552917 48.433517 125.689041 48.270241 Z"/>
        <path id="path1" fill="#72767d" fill-rule="evenodd" stroke="none" d="M 92.719727 66.280525 C 92.038559 66.198746 91.548119 66.09008 90.94873 65.817551 C 90.866936 65.762932 90.73053 65.490692 90.73053 65.381439 C 90.676201 64.427734 90.676201 61.703033 90.676201 59.877701 C 90.676201 58.406097 90.431137 57.125538 89.804283 56.226456 C 89.068481 55.190662 88.006119 54.591568 86.643471 54.591568 C 85.444695 54.591568 83.836975 55.408863 82.501785 56.55331 C 82.474617 56.580471 82.256714 56.771511 82.283882 56.471523 C 82.283882 56.171829 82.338501 55.572441 82.365669 55.163498 C 82.393127 54.782013 82.174927 54.591568 82.174927 54.591568 C 81.303009 55.027382 78.85083 55.599606 77.951462 55.681095 C 77.297737 55.817806 77.134163 56.444355 77.815628 56.662266 L 77.842796 56.662266 C 78.578011 56.880165 79.068733 57.125538 79.449921 57.370899 C 79.722458 57.58881 79.69529 57.888496 79.69529 58.133865 C 79.722458 60.177101 79.722458 63.310753 79.640961 65.02742 C 79.613792 65.708603 79.423058 65.953674 78.93232 66.062622 L 78.986946 66.035461 C 78.605461 66.117241 78.305771 66.198746 77.842506 66.253365 C 77.678925 66.416931 77.678925 67.288857 77.842506 67.479599 C 78.142197 67.479599 79.722458 67.397812 81.030777 67.397812 C 82.828941 67.397812 83.755486 67.479599 84.218452 67.479599 C 84.409195 67.261696 84.463821 66.444107 84.354874 66.253365 C 83.836975 66.226196 83.45549 66.171867 83.101463 66.062622 C 82.611031 65.953369 82.474617 65.708603 82.447166 65.136375 C 82.393127 63.691933 82.393127 60.640369 82.393127 58.569675 C 82.393127 57.997452 82.556404 57.724926 82.719688 57.561348 C 83.346535 57.016582 84.354874 56.635101 85.253952 56.635101 C 86.12587 56.635101 86.6978 56.907627 87.133904 57.261948 C 87.733292 57.752087 87.924034 58.460724 88.005821 58.978325 C 88.141937 60.149933 88.087608 62.465996 88.087608 64.482361 C 88.087608 65.572189 88.005821 65.844711 87.597473 65.980835 C 87.406433 66.062622 86.915993 66.171867 86.343773 66.225906 C 86.153038 66.416931 86.207657 67.261696 86.343773 67.452438 C 87.133904 67.452438 88.06044 67.370651 89.422806 67.370651 C 91.112015 67.370651 92.202133 67.452438 92.638237 67.452438 C 92.774063 67.288857 92.82869 66.498734 92.719727 66.280525 Z M 100.267296 55.872429 C 98.823448 55.872429 97.924072 56.989422 97.924072 58.73296 C 97.924072 60.504253 98.714203 62.547779 100.948479 62.547779 C 101.329956 62.547779 102.038589 62.384209 102.365166 62.002728 C 102.883049 61.512581 103.237366 60.531422 103.237366 59.495922 C 103.237366 57.234489 102.120087 55.872135 100.267296 55.872135 Z M 100.076561 67.915405 C 99.531792 67.915405 99.150017 68.078979 98.904945 68.215401 C 97.760506 68.950607 97.242897 69.659248 97.242897 70.504295 C 97.242897 71.294128 97.542595 71.920677 98.196602 72.465736 C 98.986732 73.146912 100.076561 73.474075 101.466072 73.474075 C 104.245399 73.474075 105.471649 71.975304 105.471649 70.504295 C 105.471649 69.468506 104.953751 68.787323 103.89138 68.406143 C 103.128418 68.078979 101.738899 67.915405 100.076561 67.915405 Z M 100.267296 75 C 98.605247 75 97.406181 74.645683 96.370972 73.855553 C 95.362648 73.09259 94.926834 71.948135 94.926834 71.158012 C 94.926834 70.940109 94.981461 70.340424 95.471901 69.795654 C 95.771301 69.468506 96.425613 68.841949 97.978691 67.779289 C 98.033028 67.752129 98.060188 67.72496 98.060188 67.670044 C 98.060188 67.615707 98.005569 67.561089 97.951241 67.534225 C 96.670677 67.043785 96.289192 66.253365 96.179947 65.817551 L 96.179947 65.762932 C 96.153076 65.59935 96.098457 65.436066 96.343819 65.272491 C 96.534561 65.136375 96.807091 64.972794 97.106491 64.782349 C 97.569763 64.509521 98.060188 64.209831 98.359886 63.964466 C 98.414513 63.910141 98.414513 63.855804 98.414513 63.801186 C 98.414513 63.746563 98.359886 63.691933 98.305267 63.665066 C 96.398445 63.038219 95.444733 61.621243 95.444733 59.495922 C 95.444733 58.106403 96.071289 56.853004 97.188271 56.062878 C 97.951241 55.46349 99.85865 54.727688 101.112053 54.727688 L 101.19384 54.727688 C 102.474403 54.754852 103.182739 55.027382 104.190781 55.381702 C 104.73584 55.572441 105.253738 55.653934 105.962372 55.653934 C 107.024734 55.653934 107.487999 55.327076 107.869194 54.945885 C 107.896652 55.000217 107.951271 55.136627 107.978439 55.490654 C 108.005608 55.844967 107.896652 56.362572 107.624115 56.744049 C 107.406219 57.043743 106.915779 57.261948 106.425346 57.261948 L 106.28894 57.261948 C 105.7985 57.207321 105.580292 57.152699 105.580292 57.152699 L 105.471649 57.207321 C 105.444481 57.261948 105.471649 57.316277 105.498802 57.398064 L 105.526268 57.452686 C 105.580597 57.697758 105.689552 58.433266 105.689552 58.624302 C 105.689552 60.858578 104.790466 61.839149 103.836754 62.574947 C 102.910217 63.256123 101.847855 63.691933 100.648781 63.801186 C 100.62162 63.801186 100.512955 63.801186 100.267296 63.82835 C 100.13118 63.82835 99.940445 63.855804 99.912971 63.855804 L 99.885818 63.855804 C 99.667908 63.910141 99.123146 64.182663 99.123146 64.645645 C 99.123146 65.054291 99.36821 65.545021 100.539833 65.626808 C 100.784897 65.653976 101.029968 65.653976 101.302788 65.681427 C 102.855888 65.790092 104.790466 65.926498 105.689552 66.226196 C 106.942947 66.689178 107.733078 67.806458 107.733078 69.141647 C 107.733078 71.15831 106.28923 73.038261 103.89138 74.209579 C 102.719772 74.727463 101.547867 75 100.267296 75 Z M 115.798241 56.008545 C 115.226318 56.008545 114.708412 56.144367 114.326935 56.416901 C 113.26458 57.070911 112.719521 58.378937 112.719521 60.286057 C 112.719521 63.855804 114.517685 66.36261 117.079109 66.36261 C 117.842064 66.36261 118.441452 66.144409 118.959061 65.708603 C 119.749184 65.054291 120.158134 63.746563 120.158134 61.920937 C 120.158134 58.378937 118.386833 56.008251 115.798546 56.008251 Z M 116.288971 67.670341 C 111.65686 67.670341 109.994804 64.26445 109.994804 61.076477 C 109.994804 58.842209 110.89389 57.125538 112.692055 55.8993 C 113.972916 55.109169 115.498848 54.673359 116.861198 54.673359 C 120.403191 54.673359 122.882828 57.207321 122.882828 60.858578 C 122.882828 63.337914 121.901962 65.299652 120.021713 66.498734 C 119.122643 67.098114 117.569534 67.670341 116.288673 67.670341 L 116.288971 67.670341 Z M 67.733803 56.008251 C 67.161583 56.008251 66.643982 56.144367 66.262199 56.416901 C 65.199837 57.070911 64.654778 58.378937 64.654778 60.286057 C 64.654778 63.855804 66.452942 66.36261 69.014374 66.36261 C 69.777328 66.36261 70.376717 66.144409 70.894615 65.708603 C 71.684448 65.054291 72.093391 63.746563 72.093391 61.920937 C 72.093391 58.378937 70.349556 56.008251 67.733803 56.008251 Z M 68.224243 67.670341 C 63.592121 67.670341 61.930073 64.26445 61.930073 61.076477 C 61.930073 58.842209 62.829155 57.125538 64.627319 55.8993 C 65.908173 55.109169 67.434105 54.673359 68.796463 54.673359 C 72.33876 54.673359 74.8181 57.207321 74.8181 60.858578 C 74.8181 63.337914 73.837227 65.299652 71.956985 66.498734 C 71.08506 67.098114 69.531975 67.670341 68.224243 67.670341 Z M 37.080265 67.397812 C 37.025635 67.316315 36.971016 67.070953 36.998474 66.771255 C 36.998474 66.553055 37.053097 66.416931 37.080265 66.36261 C 37.652485 66.280525 37.952179 66.198746 38.279041 66.117241 C 38.824097 65.980835 39.042004 65.681427 39.069168 65.000259 C 39.151253 63.365372 39.151253 60.258888 39.123791 58.106403 L 39.123791 58.051781 C 39.123791 57.806709 39.123791 57.506721 38.824097 57.288815 C 38.387993 57.016582 37.870392 56.771511 37.189213 56.580177 C 36.944149 56.498985 36.780571 56.362572 36.807732 56.199287 C 36.807732 56.035713 36.97131 55.844967 37.325626 55.790348 C 38.224709 55.708557 40.567638 55.136627 41.494179 54.727688 C 41.548805 54.782013 41.630592 54.945885 41.630592 55.163795 L 41.603428 55.463192 C 41.57597 55.763184 41.548805 56.1175 41.548805 56.471523 C 41.548805 56.580471 41.658051 56.662266 41.766712 56.662266 C 41.821335 56.662266 41.875957 56.635101 41.930286 56.607639 C 43.674126 55.245285 45.254383 54.754852 46.071674 54.754852 C 47.407162 54.754852 48.442654 55.381702 49.232784 56.689426 C 49.287113 56.771511 49.34174 56.798679 49.423527 56.798679 C 49.477856 56.798679 49.559349 56.771511 49.586807 56.716888 C 51.194527 55.490654 52.802246 54.754852 53.864609 54.754852 C 56.398575 54.754852 57.897343 56.635101 57.897343 59.823078 C 57.897343 60.72216 57.897343 61.893776 57.870174 62.95673 C 57.870174 63.910141 57.84301 64.782059 57.84301 65.408905 C 57.84301 65.544724 58.033459 65.980835 58.333153 66.062622 C 58.714638 66.253365 59.232533 66.335152 59.913704 66.444107 L 59.940872 66.444107 C 59.995499 66.634842 59.886543 67.343185 59.777588 67.479599 C 59.61401 67.479599 59.368649 67.479599 59.096413 67.452438 C 58.406666 67.416443 57.716106 67.398232 57.025421 67.397812 C 55.336212 67.397812 54.464294 67.424973 53.619244 67.479599 C 53.565212 67.261696 53.53775 66.607681 53.619244 66.444107 C 54.109974 66.36261 54.355049 66.280525 54.655033 66.199036 C 55.200092 66.035461 55.336212 65.790092 55.36367 65.081749 C 55.36367 64.564148 55.472328 60.149933 55.30875 59.08728 C 55.145466 57.997452 54.327881 56.716888 52.529423 56.716888 C 51.848244 56.716888 50.785877 56.989422 49.750385 57.779255 C 49.696056 57.833878 49.641136 57.969994 49.641136 58.051781 L 49.641136 58.079243 C 49.750385 58.651169 49.750385 59.305477 49.750385 60.313511 L 49.750385 62.084515 C 49.750385 63.310753 49.722927 64.4552 49.750385 65.32682 C 49.750385 65.926498 50.104702 66.062622 50.404396 66.171867 C 50.567974 66.198746 50.676632 66.226196 50.813046 66.253365 C 51.058117 66.307983 51.303478 66.36261 51.684967 66.444107 C 51.739586 66.553352 51.739586 66.907379 51.657799 67.207069 C 51.630337 67.370651 51.57571 67.452133 51.54855 67.479599 C 50.622299 67.452438 49.668594 67.424973 48.279079 67.424973 C 47.87043 67.424973 47.161793 67.452438 46.562405 67.452438 C 46.071674 67.452438 45.6087 67.479599 45.336464 67.479599 C 45.309006 67.424973 45.254383 67.234528 45.254383 66.93454 C 45.254383 66.689468 45.309006 66.498734 45.363628 66.444107 C 45.499748 66.416931 45.6087 66.389771 45.745113 66.389771 C 46.071674 66.335152 46.344501 66.280525 46.616737 66.226196 C 47.080303 66.09008 47.243584 65.844711 47.270748 65.245331 C 47.352539 63.882973 47.434326 59.986656 47.243584 59.005486 C 46.916725 57.425232 46.017643 56.635101 44.573204 56.635101 C 43.728745 56.635101 42.665794 57.043743 41.79417 57.698055 C 41.657757 57.806709 41.548805 58.078949 41.548805 58.324314 L 41.548805 59.93203 C 41.548805 61.893776 41.548805 64.346245 41.57597 65.408905 C 41.603428 65.735474 41.712086 66.117241 42.338936 66.253365 C 42.475346 66.280525 42.693253 66.335152 42.965782 66.36261 L 43.455921 66.444107 C 43.510841 66.607681 43.483383 67.261696 43.374432 67.479599 C 43.101898 67.479599 42.77504 67.452438 42.393261 67.452438 C 41.821335 67.424973 41.085533 67.397812 40.268238 67.397812 C 39.314537 67.397812 38.633354 67.424973 38.088299 67.452438 C 37.706818 67.397812 37.40712 67.397812 37.080265 67.397812 Z"/>
        <path id="path2" fill="#ffffff" fill-rule="evenodd" stroke="none" d="M 22.747797 73.93734 L 21.63081 73.555565 C 21.63081 73.555565 21.767221 67.861084 19.723396 67.452438 C 18.361338 65.87188 19.941893 0.423416 24.846247 67.234238 C 24.846247 67.234238 23.15674 68.07869 22.857046 69.523125 C 22.52989 70.940109 22.747797 73.93734 22.747797 73.93734 Z"/>
        <path id="path3" fill="#a6a385" fill-rule="evenodd" stroke="none" d="M 22.747797 73.93734 L 21.63081 73.555565 C 21.63081 73.555565 21.767221 67.861084 19.723396 67.452438 C 18.361338 65.87188 19.941893 0.423416 24.846247 67.234238 C 24.846247 67.234238 23.15674 68.07869 22.857046 69.523125 C 22.52989 70.940109 22.747797 73.93734 22.747797 73.93734 Z"/>
        <path id="path4" fill="#ffffff" fill-rule="evenodd" stroke="none" d="M 23.347481 68.433304 C 23.347481 68.433304 33.129616 62.002728 30.840424 48.623962 C 28.633614 38.897049 23.42927 35.709068 22.857046 34.482834 C 22.230492 33.610916 21.63081 32.085281 21.63081 32.085281 L 22.039751 59.141602 C 22.039751 59.169064 21.194998 67.424973 23.347776 68.433594"/>
        <path id="path5" fill="#72767d" fill-rule="evenodd" stroke="none" d="M 23.347481 68.433304 C 23.347481 68.433304 33.129616 62.002728 30.840424 48.623962 C 28.633614 38.897049 23.42927 35.709068 22.857046 34.482834 C 22.230492 33.610916 21.63081 32.085281 21.63081 32.085281 L 22.039751 59.141602 C 22.039751 59.169064 21.194998 67.424973 23.347776 68.433594"/>
        <path id="path6" fill="#ffffff" fill-rule="evenodd" stroke="none" d="M 21.05888 68.787323 C 21.05888 68.787323 11.876135 62.520325 12.421194 51.485378 C 12.938794 40.450142 19.423702 35.027893 20.677103 34.04702 C 21.494692 33.175102 21.521856 32.847946 21.576481 31.976036 C 22.148705 33.202263 22.039751 50.313766 22.121244 52.329838 C 22.366314 60.09531 21.685432 67.316315 21.05888 68.787323 Z"/>
        <path id="path7" fill="#72767d" fill-rule="evenodd" stroke="none" d="M 21.05888 68.787323 C 21.05888 68.787323 11.876135 62.520325 12.421194 51.485378 C 12.938794 40.450142 19.423702 35.027893 20.677103 34.04702 C 21.494692 33.175102 21.521856 32.847946 21.576481 31.976036 C 22.148705 33.202263 22.039751 50.313766 22.121244 52.329838 C 22.366314 60.09531 21.685432 67.316315 21.05888 68.787323 Z"/>
    </g>
</svg>
