<svg width="117" height="114" viewBox="0 0 117 114" fill="none" xmlns="http://www.w3.org/2000/svg">
<g clip-path="url(#clip0_628_3325)">
<path d="M17.722 47.4653H1.17773V51.123H7.28414V66.7191H11.6164V51.123H17.722V47.4653ZM33.8994 60.1826C33.5668 61.0235 33.0247 61.7654 32.3247 62.3379C31.6247 62.9105 30.7899 63.2946 29.8997 63.4538C29.5681 63.5125 29.2319 63.5422 28.8951 63.5427C28.554 63.5427 28.218 63.5102 27.8931 63.4538C27.0029 63.295 26.1682 62.911 25.4684 62.3384C24.7686 61.7658 24.227 61.0237 23.8951 60.1826C23.5091 59.1981 23.3114 58.15 23.312 57.0926C23.312 56.0016 23.5197 54.9568 23.8951 54.0001C24.5714 52.2901 26.0839 51.0529 27.8931 50.7297C28.5564 50.6074 29.2364 50.6074 29.8997 50.7297C30.7898 50.8885 31.6246 51.2723 32.3246 51.8446C33.0246 52.4168 33.5667 53.1585 33.8994 53.9992C34.675 55.9874 34.675 58.1944 33.8994 60.1826ZM28.8943 46.8865C23.2607 46.8865 18.689 51.4556 18.689 57.0926C18.689 62.7253 23.2607 67.2953 28.8943 67.2953C34.5321 67.2953 39.1004 62.7253 39.1004 57.0926C39.1004 51.4556 34.5321 46.8865 28.8943 46.8865ZM39.1688 47.4653H44.2714L49.0364 55.7434L53.8013 47.4653H58.9022L51.2021 59.596V66.7191H46.8706V59.596L39.1688 47.4653ZM69.1887 63.5444C69.529 63.5444 69.8667 63.5102 70.1908 63.4538C71.0809 63.2955 71.9156 62.9119 72.6154 62.3395C73.3152 61.7672 73.8569 61.0252 74.1888 60.1843C74.9702 58.1975 74.9702 55.9885 74.1888 54.0018C73.8569 53.1607 73.3152 52.4185 72.6154 51.8459C71.9156 51.2733 71.0809 50.8894 70.1908 50.7306C69.5263 50.6117 68.846 50.6117 68.1815 50.7306C67.2917 50.8892 66.4572 51.2731 65.7577 51.8456C65.0582 52.418 64.5168 53.16 64.1852 54.0009C63.7983 54.9855 63.6 56.0339 63.6004 57.0918C63.6004 58.1827 63.8082 59.225 64.1852 60.1834C64.5166 61.0244 65.0579 61.7664 65.7575 62.3388C66.457 62.9111 67.2916 63.2947 68.1815 63.453C68.5139 63.513 68.8509 63.5436 69.1887 63.5444ZM58.9817 57.0918C58.9817 51.4556 63.5491 46.8848 69.1887 46.8848C74.8223 46.8848 79.394 51.4539 79.394 57.0918C79.3931 62.7245 74.8223 67.2979 69.1887 67.2979C63.5491 67.2979 58.9817 62.7245 58.9817 57.0918ZM108.941 59.0984L106.106 51.4915L103.267 59.0984H108.941ZM110.198 62.4671H102.003L100.426 66.7071H95.6065L103.407 47.4516H108.797L116.599 66.7071H111.786L110.198 62.4671ZM96.8796 47.4653H80.3353V51.123H86.4443L86.4426 66.7191H90.7766L90.7749 51.123H96.8796V47.4653Z" fill="#72767D"/>
</g>
<defs>
<clipPath id="clip0_628_3325">
<rect width="116.28" height="20.52" fill="white" transform="translate(0.320312 46.7783)"/>
</clipPath>
</defs>
</svg>
