<svg width="16" height="16" viewBox="0 0 16 16" fill="none" xmlns="http://www.w3.org/2000/svg">
<path d="M8.1626 2.6665C8.51866 2.66846 9.40953 2.67708 10.3561 2.71499L10.6917 2.72962C11.6447 2.77474 12.5969 2.85182 13.0691 2.9835C13.6991 3.16047 14.1942 3.67684 14.3615 4.33138C14.628 5.37078 14.6613 7.39944 14.6655 7.89037L14.6661 7.9921V7.99924C14.6661 7.99924 14.6661 8.0017 14.6661 8.00644L14.6655 8.10817C14.6613 8.5991 14.628 10.6278 14.3615 11.6672C14.1919 12.3241 13.6967 12.8405 13.0691 13.015C12.5969 13.1467 11.6447 13.2238 10.6917 13.2689L10.3561 13.2835C9.40953 13.3214 8.51866 13.33 8.1626 13.332L8.00633 13.3326H7.99939C7.99939 13.3326 7.99706 13.3326 7.99246 13.3326L7.83633 13.332C7.08273 13.3279 3.93181 13.2938 2.92967 13.015C2.29973 12.838 1.80461 12.3217 1.63724 11.6672C1.37079 10.6278 1.33749 8.5991 1.33333 8.10817V7.89037C1.33749 7.39944 1.37079 5.37078 1.63724 4.33138C1.80693 3.67441 2.30205 3.15805 2.92967 2.9835C3.93181 2.70466 7.08273 2.67065 7.83633 2.6665H8.1626ZM6.66607 5.66593V10.3326L10.6661 7.99924L6.66607 5.66593Z" fill="#035925"/>
</svg>
