<svg width="19" height="17" viewBox="0 0 19 17" fill="none" xmlns="http://www.w3.org/2000/svg">
<path d="M11.0099 17V11.1154C11.0099 8.19487 11.6391 5.73205 12.8974 3.72692C14.1976 1.6782 16.2318 0.435897 19 0V3.4C17.3642 3.57436 16.2318 4.18462 15.6026 5.23077C15.0155 6.23333 14.7219 7.73718 14.7219 9.74231L12.2053 9.35H18.9371V17H11.0099ZM0 17V11.1154C0 8.19487 0.629139 5.73205 1.88742 3.72692C3.18764 1.6782 5.22185 0.435897 7.99007 0V3.4C6.3543 3.57436 5.22185 4.18462 4.59272 5.23077C4.00552 6.23333 3.71192 7.73718 3.71192 9.74231L1.19536 9.35H7.92715V17H0Z" fill="#035925"/>
</svg>
